<mxfile host="app.diagrams.net" modified="2024-05-30T15:32:02.732Z" agent="Mozilla/5.0 (Windows NT 10.0; Win64; x64) AppleWebKit/537.36 (KHTML, like Gecko) Chrome/125.0.0.0 Safari/537.36" etag="riGIrfLM40zP7eChXRfs" version="24.4.10" type="device">
  <diagram id="R2lEEEUBdFMjLlhIrx00" name="Page-1">
    <mxGraphModel dx="1509" dy="821" grid="0" gridSize="10" guides="1" tooltips="1" connect="1" arrows="1" fold="1" page="1" pageScale="1" pageWidth="1169" pageHeight="827" math="0" shadow="1" extFonts="Permanent Marker^https://fonts.googleapis.com/css?family=Permanent+Marker">
      <root>
        <mxCell id="0" />
        <mxCell id="1" parent="0" />
        <mxCell id="vhcxvKv5DyeP2Y2cLlsE-8" value="" style="rounded=0;whiteSpace=wrap;html=1;strokeColor=#000099;strokeWidth=2;align=center;verticalAlign=top;fontFamily=Helvetica;fontSize=12;fontColor=default;fillColor=default;shadow=1;" vertex="1" parent="1">
          <mxGeometry x="403" y="660" width="250" height="89" as="geometry" />
        </mxCell>
        <mxCell id="vhcxvKv5DyeP2Y2cLlsE-6" value="" style="rounded=0;whiteSpace=wrap;html=1;strokeColor=#000099;strokeWidth=2;align=center;verticalAlign=top;fontFamily=Helvetica;fontSize=12;fontColor=default;fillColor=default;shadow=1;" vertex="1" parent="1">
          <mxGeometry x="107" y="10" width="437" height="630" as="geometry" />
        </mxCell>
        <mxCell id="vhcxvKv5DyeP2Y2cLlsE-2" value="" style="verticalLabelPosition=bottom;verticalAlign=top;html=1;shape=mxgraph.basic.polygon;polyCoords=[[0.25,0],[0.75,0],[1,0],[0.99,0.36],[0.42,0.36],[0.42,0.88],[0,0.88],[0.01,0]];polyline=0;strokeWidth=2;strokeColor=#000099;rounded=0;shadow=1;" vertex="1" parent="1">
          <mxGeometry x="604" y="10" width="549" height="716" as="geometry" />
        </mxCell>
        <mxCell id="-9Wgxi1lex53H1lpSd3E-2" value="ProfileController" style="html=1;whiteSpace=wrap;rounded=0;" parent="1" vertex="1">
          <mxGeometry x="631" y="97" width="110" height="50" as="geometry" />
        </mxCell>
        <mxCell id="-9Wgxi1lex53H1lpSd3E-3" value="PersonalInformation&lt;div&gt;Controller&lt;/div&gt;" style="html=1;whiteSpace=wrap;rounded=0;" parent="1" vertex="1">
          <mxGeometry x="626" y="196" width="120" height="40" as="geometry" />
        </mxCell>
        <mxCell id="-9Wgxi1lex53H1lpSd3E-4" value="ExperienceController" style="html=1;whiteSpace=wrap;rounded=0;" parent="1" vertex="1">
          <mxGeometry x="623.5" y="276" width="125" height="50" as="geometry" />
        </mxCell>
        <mxCell id="-9Wgxi1lex53H1lpSd3E-5" value="EducationController" style="html=1;whiteSpace=wrap;rounded=0;" parent="1" vertex="1">
          <mxGeometry x="628.5" y="366" width="115" height="50" as="geometry" />
        </mxCell>
        <mxCell id="-9Wgxi1lex53H1lpSd3E-6" value="SkillsController" style="html=1;whiteSpace=wrap;rounded=0;" parent="1" vertex="1">
          <mxGeometry x="631" y="456" width="110" height="50" as="geometry" />
        </mxCell>
        <mxCell id="-9Wgxi1lex53H1lpSd3E-7" value="«interface»&lt;br&gt;&lt;b&gt;HasAddableTextFields&lt;/b&gt;" style="html=1;whiteSpace=wrap;rounded=0;" parent="1" vertex="1">
          <mxGeometry x="872" y="285" width="140" height="50" as="geometry" />
        </mxCell>
        <mxCell id="-9Wgxi1lex53H1lpSd3E-8" value="«interface»&lt;br&gt;&lt;b&gt;HasDateValidation&lt;/b&gt;" style="html=1;whiteSpace=wrap;rounded=0;" parent="1" vertex="1">
          <mxGeometry x="882" y="371" width="120" height="50" as="geometry" />
        </mxCell>
        <mxCell id="-9Wgxi1lex53H1lpSd3E-9" value="«interface»&lt;br&gt;&lt;b&gt;HasToggleableSave&lt;/b&gt;&lt;div&gt;&lt;b&gt;Buttons&lt;/b&gt;&lt;/div&gt;" style="html=1;whiteSpace=wrap;rounded=0;" parent="1" vertex="1">
          <mxGeometry x="877" y="456" width="130" height="50" as="geometry" />
        </mxCell>
        <mxCell id="-9Wgxi1lex53H1lpSd3E-10" value="" style="endArrow=block;endSize=16;endFill=0;html=1;rounded=0;entryX=0;entryY=0.5;entryDx=0;entryDy=0;" parent="1" edge="1">
          <mxGeometry width="160" relative="1" as="geometry">
            <mxPoint x="776" y="181" as="sourcePoint" />
            <mxPoint x="879.9999999999998" y="181" as="targetPoint" />
          </mxGeometry>
        </mxCell>
        <mxCell id="-9Wgxi1lex53H1lpSd3E-11" value="" style="endArrow=none;html=1;rounded=0;exitX=1;exitY=0.25;exitDx=0;exitDy=0;" parent="1" source="-9Wgxi1lex53H1lpSd3E-2" edge="1">
          <mxGeometry width="50" height="50" relative="1" as="geometry">
            <mxPoint x="580" y="436" as="sourcePoint" />
            <mxPoint x="775" y="109" as="targetPoint" />
          </mxGeometry>
        </mxCell>
        <mxCell id="-9Wgxi1lex53H1lpSd3E-12" value="" style="endArrow=none;html=1;rounded=0;" parent="1" edge="1">
          <mxGeometry width="50" height="50" relative="1" as="geometry">
            <mxPoint x="778" y="463" as="sourcePoint" />
            <mxPoint x="775" y="109" as="targetPoint" />
          </mxGeometry>
        </mxCell>
        <mxCell id="-9Wgxi1lex53H1lpSd3E-13" value="Extends" style="edgeLabel;html=1;align=center;verticalAlign=middle;resizable=0;points=[];flipV=1;flipH=1;rotation=90;rounded=0;" parent="-9Wgxi1lex53H1lpSd3E-12" vertex="1" connectable="0">
          <mxGeometry x="0.3254" relative="1" as="geometry">
            <mxPoint as="offset" />
          </mxGeometry>
        </mxCell>
        <mxCell id="-9Wgxi1lex53H1lpSd3E-14" value="" style="endArrow=none;html=1;rounded=0;exitX=1.002;exitY=0.151;exitDx=0;exitDy=0;exitPerimeter=0;" parent="1" source="-9Wgxi1lex53H1lpSd3E-6" edge="1">
          <mxGeometry width="50" height="50" relative="1" as="geometry">
            <mxPoint x="767" y="506" as="sourcePoint" />
            <mxPoint x="778" y="463" as="targetPoint" />
          </mxGeometry>
        </mxCell>
        <mxCell id="-9Wgxi1lex53H1lpSd3E-15" value="" style="endArrow=none;html=1;rounded=0;exitX=1;exitY=0.25;exitDx=0;exitDy=0;" parent="1" source="-9Wgxi1lex53H1lpSd3E-3" edge="1">
          <mxGeometry width="50" height="50" relative="1" as="geometry">
            <mxPoint x="791" y="203" as="sourcePoint" />
            <mxPoint x="776" y="206" as="targetPoint" />
          </mxGeometry>
        </mxCell>
        <mxCell id="-9Wgxi1lex53H1lpSd3E-18" value="" style="endArrow=none;html=1;rounded=0;exitX=1;exitY=0.25;exitDx=0;exitDy=0;" parent="1" source="-9Wgxi1lex53H1lpSd3E-4" edge="1">
          <mxGeometry width="50" height="50" relative="1" as="geometry">
            <mxPoint x="710" y="333" as="sourcePoint" />
            <mxPoint x="776" y="288" as="targetPoint" />
          </mxGeometry>
        </mxCell>
        <mxCell id="-9Wgxi1lex53H1lpSd3E-19" value="" style="endArrow=none;html=1;rounded=0;exitX=1;exitY=0.25;exitDx=0;exitDy=0;" parent="1" source="-9Wgxi1lex53H1lpSd3E-5" edge="1">
          <mxGeometry width="50" height="50" relative="1" as="geometry">
            <mxPoint x="753" y="413" as="sourcePoint" />
            <mxPoint x="777" y="378" as="targetPoint" />
          </mxGeometry>
        </mxCell>
        <mxCell id="-9Wgxi1lex53H1lpSd3E-20" value="" style="endArrow=block;dashed=1;endFill=0;endSize=12;html=1;rounded=0;entryX=0;entryY=0.5;entryDx=0;entryDy=0;" parent="1" target="-9Wgxi1lex53H1lpSd3E-7" edge="1">
          <mxGeometry width="160" relative="1" as="geometry">
            <mxPoint x="811" y="310" as="sourcePoint" />
            <mxPoint x="773" y="355" as="targetPoint" />
          </mxGeometry>
        </mxCell>
        <mxCell id="-9Wgxi1lex53H1lpSd3E-21" value="" style="endArrow=block;dashed=1;endFill=0;endSize=12;html=1;rounded=0;entryX=0;entryY=0.5;entryDx=0;entryDy=0;" parent="1" target="-9Wgxi1lex53H1lpSd3E-8" edge="1">
          <mxGeometry width="160" relative="1" as="geometry">
            <mxPoint x="814" y="397" as="sourcePoint" />
            <mxPoint x="836" y="355" as="targetPoint" />
          </mxGeometry>
        </mxCell>
        <mxCell id="-9Wgxi1lex53H1lpSd3E-22" value="" style="endArrow=block;dashed=1;endFill=0;endSize=12;html=1;rounded=0;entryX=0;entryY=0.5;entryDx=0;entryDy=0;" parent="1" target="-9Wgxi1lex53H1lpSd3E-9" edge="1">
          <mxGeometry width="160" relative="1" as="geometry">
            <mxPoint x="812" y="480" as="sourcePoint" />
            <mxPoint x="836" y="450" as="targetPoint" />
          </mxGeometry>
        </mxCell>
        <mxCell id="-9Wgxi1lex53H1lpSd3E-23" value="" style="endArrow=none;dashed=1;html=1;rounded=0;exitX=1;exitY=0.5;exitDx=0;exitDy=0;" parent="1" source="-9Wgxi1lex53H1lpSd3E-2" edge="1">
          <mxGeometry width="50" height="50" relative="1" as="geometry">
            <mxPoint x="731" y="284" as="sourcePoint" />
            <mxPoint x="810" y="121" as="targetPoint" />
          </mxGeometry>
        </mxCell>
        <mxCell id="-9Wgxi1lex53H1lpSd3E-24" value="" style="endArrow=none;dashed=1;html=1;rounded=0;" parent="1" edge="1">
          <mxGeometry width="50" height="50" relative="1" as="geometry">
            <mxPoint x="813" y="480" as="sourcePoint" />
            <mxPoint x="810" y="121" as="targetPoint" />
          </mxGeometry>
        </mxCell>
        <mxCell id="-9Wgxi1lex53H1lpSd3E-26" value="Implements" style="edgeLabel;html=1;align=center;verticalAlign=middle;resizable=0;points=[];rotation=90;rounded=0;" parent="-9Wgxi1lex53H1lpSd3E-24" vertex="1" connectable="0">
          <mxGeometry x="0.3711" relative="1" as="geometry">
            <mxPoint x="1" as="offset" />
          </mxGeometry>
        </mxCell>
        <mxCell id="-9Wgxi1lex53H1lpSd3E-25" value="" style="endArrow=none;dashed=1;html=1;rounded=0;exitX=1;exitY=0.5;exitDx=0;exitDy=0;" parent="1" source="-9Wgxi1lex53H1lpSd3E-6" edge="1">
          <mxGeometry width="50" height="50" relative="1" as="geometry">
            <mxPoint x="713" y="422" as="sourcePoint" />
            <mxPoint x="813" y="481" as="targetPoint" />
          </mxGeometry>
        </mxCell>
        <mxCell id="-9Wgxi1lex53H1lpSd3E-27" value="" style="endArrow=none;dashed=1;html=1;rounded=0;exitX=1;exitY=0.5;exitDx=0;exitDy=0;" parent="1" source="-9Wgxi1lex53H1lpSd3E-3" edge="1">
          <mxGeometry width="50" height="50" relative="1" as="geometry">
            <mxPoint x="714" y="333" as="sourcePoint" />
            <mxPoint x="811" y="216" as="targetPoint" />
          </mxGeometry>
        </mxCell>
        <mxCell id="-9Wgxi1lex53H1lpSd3E-28" value="" style="endArrow=none;dashed=1;html=1;rounded=0;exitX=1;exitY=0.5;exitDx=0;exitDy=0;" parent="1" source="-9Wgxi1lex53H1lpSd3E-4" edge="1">
          <mxGeometry width="50" height="50" relative="1" as="geometry">
            <mxPoint x="742" y="301" as="sourcePoint" />
            <mxPoint x="811" y="300" as="targetPoint" />
          </mxGeometry>
        </mxCell>
        <mxCell id="-9Wgxi1lex53H1lpSd3E-29" value="" style="endArrow=none;dashed=1;html=1;rounded=0;exitX=1;exitY=0.5;exitDx=0;exitDy=0;" parent="1" source="-9Wgxi1lex53H1lpSd3E-5" edge="1">
          <mxGeometry width="50" height="50" relative="1" as="geometry">
            <mxPoint x="742" y="301" as="sourcePoint" />
            <mxPoint x="812" y="390" as="targetPoint" />
          </mxGeometry>
        </mxCell>
        <mxCell id="-9Wgxi1lex53H1lpSd3E-30" value="CVTemplate" style="html=1;whiteSpace=wrap;rounded=0;" parent="1" vertex="1">
          <mxGeometry x="516" y="680" width="110" height="50" as="geometry" />
        </mxCell>
        <mxCell id="-9Wgxi1lex53H1lpSd3E-31" value="ProfilePage" style="html=1;whiteSpace=wrap;rounded=0;" parent="1" vertex="1">
          <mxGeometry x="385" y="97" width="110" height="50" as="geometry" />
        </mxCell>
        <mxCell id="-9Wgxi1lex53H1lpSd3E-32" value="PersonalInformation&lt;div&gt;Page&lt;/div&gt;" style="html=1;whiteSpace=wrap;rounded=0;" parent="1" vertex="1">
          <mxGeometry x="376.5" y="194" width="127" height="50" as="geometry" />
        </mxCell>
        <mxCell id="-9Wgxi1lex53H1lpSd3E-33" value="ExperiencePage" style="html=1;whiteSpace=wrap;rounded=0;" parent="1" vertex="1">
          <mxGeometry x="385" y="276" width="110" height="50" as="geometry" />
        </mxCell>
        <mxCell id="-9Wgxi1lex53H1lpSd3E-34" value="EducationPage" style="html=1;whiteSpace=wrap;rounded=0;" parent="1" vertex="1">
          <mxGeometry x="385" y="366" width="110" height="50" as="geometry" />
        </mxCell>
        <mxCell id="-9Wgxi1lex53H1lpSd3E-35" value="SkillsPage" style="html=1;whiteSpace=wrap;rounded=0;" parent="1" vertex="1">
          <mxGeometry x="385" y="456" width="110" height="50" as="geometry" />
        </mxCell>
        <mxCell id="-9Wgxi1lex53H1lpSd3E-36" value="SummaryController" style="html=1;whiteSpace=wrap;rounded=0;" parent="1" vertex="1">
          <mxGeometry x="626" y="546" width="120" height="49" as="geometry" />
        </mxCell>
        <mxCell id="-9Wgxi1lex53H1lpSd3E-37" value="SummaryPage" style="html=1;whiteSpace=wrap;rounded=0;" parent="1" vertex="1">
          <mxGeometry x="385" y="546" width="110" height="50" as="geometry" />
        </mxCell>
        <mxCell id="-9Wgxi1lex53H1lpSd3E-39" value="1" style="endArrow=open;html=1;endSize=12;startArrow=diamondThin;startSize=14;startFill=0;edgeStyle=orthogonalEdgeStyle;align=left;verticalAlign=bottom;rounded=0;exitX=1;exitY=0.25;exitDx=0;exitDy=0;entryX=0;entryY=0.25;entryDx=0;entryDy=0;" parent="1" source="-9Wgxi1lex53H1lpSd3E-31" target="-9Wgxi1lex53H1lpSd3E-2" edge="1">
          <mxGeometry x="-1" y="3" relative="1" as="geometry">
            <mxPoint x="395" y="476" as="sourcePoint" />
            <mxPoint x="555" y="476" as="targetPoint" />
          </mxGeometry>
        </mxCell>
        <mxCell id="-9Wgxi1lex53H1lpSd3E-44" value="1" style="endArrow=open;html=1;endSize=12;startArrow=diamondThin;startSize=14;startFill=0;edgeStyle=orthogonalEdgeStyle;align=left;verticalAlign=bottom;rounded=0;exitX=1;exitY=0.25;exitDx=0;exitDy=0;entryX=0;entryY=0.25;entryDx=0;entryDy=0;" parent="1" source="-9Wgxi1lex53H1lpSd3E-32" target="-9Wgxi1lex53H1lpSd3E-3" edge="1">
          <mxGeometry x="-1" y="3" relative="1" as="geometry">
            <mxPoint x="395" y="315" as="sourcePoint" />
            <mxPoint x="555" y="315" as="targetPoint" />
          </mxGeometry>
        </mxCell>
        <mxCell id="-9Wgxi1lex53H1lpSd3E-45" value="1" style="endArrow=open;html=1;endSize=12;startArrow=diamondThin;startSize=14;startFill=0;edgeStyle=orthogonalEdgeStyle;align=left;verticalAlign=bottom;rounded=0;exitX=1;exitY=0.25;exitDx=0;exitDy=0;entryX=0;entryY=0.25;entryDx=0;entryDy=0;" parent="1" source="-9Wgxi1lex53H1lpSd3E-33" target="-9Wgxi1lex53H1lpSd3E-4" edge="1">
          <mxGeometry x="-1" y="3" relative="1" as="geometry">
            <mxPoint x="423" y="256" as="sourcePoint" />
            <mxPoint x="583" y="256" as="targetPoint" />
          </mxGeometry>
        </mxCell>
        <mxCell id="-9Wgxi1lex53H1lpSd3E-46" value="1" style="endArrow=open;html=1;endSize=12;startArrow=diamondThin;startSize=14;startFill=0;edgeStyle=orthogonalEdgeStyle;align=left;verticalAlign=bottom;rounded=0;exitX=1;exitY=0.25;exitDx=0;exitDy=0;entryX=0;entryY=0.25;entryDx=0;entryDy=0;" parent="1" source="-9Wgxi1lex53H1lpSd3E-34" target="-9Wgxi1lex53H1lpSd3E-5" edge="1">
          <mxGeometry x="-1" y="3" relative="1" as="geometry">
            <mxPoint x="434" y="328" as="sourcePoint" />
            <mxPoint x="594" y="328" as="targetPoint" />
          </mxGeometry>
        </mxCell>
        <mxCell id="-9Wgxi1lex53H1lpSd3E-47" value="1" style="endArrow=open;html=1;endSize=12;startArrow=diamondThin;startSize=14;startFill=0;edgeStyle=orthogonalEdgeStyle;align=left;verticalAlign=bottom;rounded=0;exitX=1;exitY=0.25;exitDx=0;exitDy=0;entryX=0;entryY=0.25;entryDx=0;entryDy=0;" parent="1" source="-9Wgxi1lex53H1lpSd3E-35" target="-9Wgxi1lex53H1lpSd3E-6" edge="1">
          <mxGeometry x="-1" y="3" relative="1" as="geometry">
            <mxPoint x="475" y="398" as="sourcePoint" />
            <mxPoint x="635" y="398" as="targetPoint" />
          </mxGeometry>
        </mxCell>
        <mxCell id="-9Wgxi1lex53H1lpSd3E-48" value="1" style="endArrow=open;html=1;endSize=12;startArrow=diamondThin;startSize=14;startFill=0;edgeStyle=orthogonalEdgeStyle;align=left;verticalAlign=bottom;rounded=0;exitX=1;exitY=0.25;exitDx=0;exitDy=0;entryX=0;entryY=0.25;entryDx=0;entryDy=0;" parent="1" source="-9Wgxi1lex53H1lpSd3E-37" target="-9Wgxi1lex53H1lpSd3E-36" edge="1">
          <mxGeometry x="-1" y="3" relative="1" as="geometry">
            <mxPoint x="473" y="464" as="sourcePoint" />
            <mxPoint x="633" y="464" as="targetPoint" />
          </mxGeometry>
        </mxCell>
        <mxCell id="-9Wgxi1lex53H1lpSd3E-49" value="" style="endArrow=open;endFill=1;endSize=12;html=1;rounded=0;exitX=0;exitY=0.5;exitDx=0;exitDy=0;entryX=0.5;entryY=0;entryDx=0;entryDy=0;" parent="1" source="-9Wgxi1lex53H1lpSd3E-2" target="-9Wgxi1lex53H1lpSd3E-30" edge="1">
          <mxGeometry width="160" relative="1" as="geometry">
            <mxPoint x="437" y="516" as="sourcePoint" />
            <mxPoint x="597" y="516" as="targetPoint" />
            <Array as="points">
              <mxPoint x="575" y="122" />
            </Array>
          </mxGeometry>
        </mxCell>
        <mxCell id="-9Wgxi1lex53H1lpSd3E-50" value="" style="endArrow=none;html=1;rounded=0;entryX=0;entryY=0.5;entryDx=0;entryDy=0;" parent="1" target="-9Wgxi1lex53H1lpSd3E-3" edge="1">
          <mxGeometry width="50" height="50" relative="1" as="geometry">
            <mxPoint x="574" y="216" as="sourcePoint" />
            <mxPoint x="583" y="232" as="targetPoint" />
          </mxGeometry>
        </mxCell>
        <mxCell id="-9Wgxi1lex53H1lpSd3E-51" value="" style="endArrow=none;html=1;rounded=0;entryX=0;entryY=0.5;entryDx=0;entryDy=0;" parent="1" target="-9Wgxi1lex53H1lpSd3E-4" edge="1">
          <mxGeometry width="50" height="50" relative="1" as="geometry">
            <mxPoint x="574" y="301" as="sourcePoint" />
            <mxPoint x="584" y="279" as="targetPoint" />
          </mxGeometry>
        </mxCell>
        <mxCell id="-9Wgxi1lex53H1lpSd3E-52" value="" style="endArrow=none;html=1;rounded=0;entryX=0;entryY=0.5;entryDx=0;entryDy=0;" parent="1" target="-9Wgxi1lex53H1lpSd3E-5" edge="1">
          <mxGeometry width="50" height="50" relative="1" as="geometry">
            <mxPoint x="574" y="391" as="sourcePoint" />
            <mxPoint x="594" y="381" as="targetPoint" />
          </mxGeometry>
        </mxCell>
        <mxCell id="-9Wgxi1lex53H1lpSd3E-53" value="" style="endArrow=none;html=1;rounded=0;entryX=0;entryY=0.5;entryDx=0;entryDy=0;" parent="1" target="-9Wgxi1lex53H1lpSd3E-6" edge="1">
          <mxGeometry width="50" height="50" relative="1" as="geometry">
            <mxPoint x="572" y="481" as="sourcePoint" />
            <mxPoint x="607" y="450" as="targetPoint" />
          </mxGeometry>
        </mxCell>
        <mxCell id="-9Wgxi1lex53H1lpSd3E-54" value="" style="endArrow=none;html=1;rounded=0;entryX=0;entryY=0.5;entryDx=0;entryDy=0;" parent="1" target="-9Wgxi1lex53H1lpSd3E-36" edge="1">
          <mxGeometry width="50" height="50" relative="1" as="geometry">
            <mxPoint x="572" y="571" as="sourcePoint" />
            <mxPoint x="607" y="584" as="targetPoint" />
          </mxGeometry>
        </mxCell>
        <mxCell id="-9Wgxi1lex53H1lpSd3E-60" value="Extends" style="endArrow=block;endSize=16;endFill=0;html=1;rounded=0;exitX=0;exitY=0.5;exitDx=0;exitDy=0;entryX=1;entryY=0.5;entryDx=0;entryDy=0;textDirection=vertical-rl;" parent="1" source="-9Wgxi1lex53H1lpSd3E-31" edge="1" target="-9Wgxi1lex53H1lpSd3E-66">
          <mxGeometry x="-0.014" y="-1" width="160" relative="1" as="geometry">
            <mxPoint x="271" y="373" as="sourcePoint" />
            <mxPoint x="312" y="334.9999999999999" as="targetPoint" />
            <Array as="points">
              <mxPoint x="343" y="122" />
              <mxPoint x="343" y="335" />
            </Array>
            <mxPoint as="offset" />
          </mxGeometry>
        </mxCell>
        <mxCell id="-9Wgxi1lex53H1lpSd3E-61" value="" style="endArrow=none;html=1;rounded=0;exitX=0;exitY=0.5;exitDx=0;exitDy=0;" parent="1" source="-9Wgxi1lex53H1lpSd3E-33" edge="1">
          <mxGeometry width="50" height="50" relative="1" as="geometry">
            <mxPoint x="384" y="392" as="sourcePoint" />
            <mxPoint x="343" y="301" as="targetPoint" />
          </mxGeometry>
        </mxCell>
        <mxCell id="-9Wgxi1lex53H1lpSd3E-62" value="" style="endArrow=none;html=1;rounded=0;entryX=0;entryY=0.5;entryDx=0;entryDy=0;" parent="1" target="-9Wgxi1lex53H1lpSd3E-34" edge="1">
          <mxGeometry width="50" height="50" relative="1" as="geometry">
            <mxPoint x="343" y="335" as="sourcePoint" />
            <mxPoint x="445" y="335" as="targetPoint" />
            <Array as="points">
              <mxPoint x="344" y="391" />
            </Array>
          </mxGeometry>
        </mxCell>
        <mxCell id="-9Wgxi1lex53H1lpSd3E-63" value="" style="endArrow=none;html=1;rounded=0;entryX=0;entryY=0.5;entryDx=0;entryDy=0;" parent="1" target="-9Wgxi1lex53H1lpSd3E-35" edge="1">
          <mxGeometry width="50" height="50" relative="1" as="geometry">
            <mxPoint x="344" y="391" as="sourcePoint" />
            <mxPoint x="404" y="373" as="targetPoint" />
            <Array as="points">
              <mxPoint x="346" y="481" />
            </Array>
          </mxGeometry>
        </mxCell>
        <mxCell id="-9Wgxi1lex53H1lpSd3E-64" value="" style="endArrow=none;html=1;rounded=0;entryX=0;entryY=0.5;entryDx=0;entryDy=0;" parent="1" target="-9Wgxi1lex53H1lpSd3E-37" edge="1">
          <mxGeometry width="50" height="50" relative="1" as="geometry">
            <mxPoint x="346" y="481" as="sourcePoint" />
            <mxPoint x="412" y="468" as="targetPoint" />
            <Array as="points">
              <mxPoint x="347" y="570" />
            </Array>
          </mxGeometry>
        </mxCell>
        <mxCell id="-9Wgxi1lex53H1lpSd3E-65" value="&lt;i&gt;FDMPage&lt;/i&gt;" style="swimlane;fontStyle=1;align=center;verticalAlign=top;childLayout=stackLayout;horizontal=1;startSize=26;horizontalStack=0;resizeParent=1;resizeParentMax=0;resizeLast=0;collapsible=1;marginBottom=0;whiteSpace=wrap;html=1;rounded=0;" parent="1" vertex="1">
          <mxGeometry x="139" y="273" width="167" height="134" as="geometry" />
        </mxCell>
        <mxCell id="-9Wgxi1lex53H1lpSd3E-66" value="&lt;font style=&quot;font-size: 8px;&quot;&gt;# centerBox:&amp;nbsp;&lt;/font&gt;&lt;span style=&quot;font-size: 8px;&quot;&gt;FDMCenterBoxWrapper&lt;/span&gt;&lt;div&gt;&lt;span style=&quot;font-size: 8px;&quot;&gt;# buttonWrapper: FDMHBox&lt;/span&gt;&lt;/div&gt;&lt;div&gt;&lt;span style=&quot;font-size: 8px;&quot;&gt;# prev: FDMButton&lt;/span&gt;&lt;/div&gt;&lt;div&gt;&lt;span style=&quot;font-size: 8px;&quot;&gt;# next: FDMButton&lt;/span&gt;&lt;/div&gt;&lt;div&gt;&lt;span style=&quot;font-size: 8px;&quot;&gt;&lt;br&gt;&lt;/span&gt;&lt;/div&gt;" style="text;strokeColor=none;fillColor=none;align=left;verticalAlign=top;spacingLeft=4;spacingRight=4;overflow=hidden;rotatable=0;points=[[0,0.5],[1,0.5]];portConstraint=eastwest;whiteSpace=wrap;html=1;rounded=0;" parent="-9Wgxi1lex53H1lpSd3E-65" vertex="1">
          <mxGeometry y="26" width="167" height="72" as="geometry" />
        </mxCell>
        <mxCell id="-9Wgxi1lex53H1lpSd3E-67" value="" style="line;strokeWidth=1;fillColor=none;align=left;verticalAlign=middle;spacingTop=-1;spacingLeft=3;spacingRight=3;rotatable=0;labelPosition=right;points=[];portConstraint=eastwest;strokeColor=inherit;rounded=0;" parent="-9Wgxi1lex53H1lpSd3E-65" vertex="1">
          <mxGeometry y="98" width="167" height="8" as="geometry" />
        </mxCell>
        <mxCell id="-9Wgxi1lex53H1lpSd3E-68" value="&lt;font style=&quot;font-size: 8px;&quot;&gt;# createCenterPage(): ScrollPane&lt;/font&gt;" style="text;strokeColor=none;fillColor=none;align=left;verticalAlign=top;spacingLeft=4;spacingRight=4;overflow=hidden;rotatable=0;points=[[0,0.5],[1,0.5]];portConstraint=eastwest;whiteSpace=wrap;html=1;rounded=0;" parent="-9Wgxi1lex53H1lpSd3E-65" vertex="1">
          <mxGeometry y="106" width="167" height="28" as="geometry" />
        </mxCell>
        <mxCell id="-9Wgxi1lex53H1lpSd3E-69" value="&lt;i&gt;FDMController&lt;/i&gt;" style="swimlane;fontStyle=1;align=center;verticalAlign=top;childLayout=stackLayout;horizontal=1;startSize=26;horizontalStack=0;resizeParent=1;resizeParentMax=0;resizeLast=0;collapsible=1;marginBottom=0;whiteSpace=wrap;html=1;rounded=0;" parent="1" vertex="1">
          <mxGeometry x="879" y="91" width="248" height="157" as="geometry" />
        </mxCell>
        <mxCell id="-9Wgxi1lex53H1lpSd3E-70" value="&lt;font style=&quot;font-size: 8px;&quot;&gt;# cvTemplate: CVTemplate&lt;/font&gt;&lt;div&gt;&lt;font style=&quot;font-size: 8px;&quot;&gt;# stage: Stage&lt;/font&gt;&lt;/div&gt;&lt;div&gt;&lt;font style=&quot;font-size: 8px;&quot;&gt;# recent: Menu&lt;/font&gt;&lt;/div&gt;&lt;div&gt;&lt;font style=&quot;font-size: 8px;&quot;&gt;# treeView: TreeView&lt;/font&gt;&lt;/div&gt;&lt;div&gt;&lt;font style=&quot;font-size: 8px;&quot;&gt;# correspondingMap:&amp;nbsp;&lt;/font&gt;&lt;span style=&quot;font-size: 8px; background-color: initial;&quot;&gt;Map&amp;lt;MenuButton, TextInputControl&amp;gt;&lt;/span&gt;&lt;/div&gt;" style="text;strokeColor=none;fillColor=none;align=left;verticalAlign=top;spacingLeft=4;spacingRight=4;overflow=hidden;rotatable=0;points=[[0,0.5],[1,0.5]];portConstraint=eastwest;whiteSpace=wrap;html=1;rounded=0;" parent="-9Wgxi1lex53H1lpSd3E-69" vertex="1">
          <mxGeometry y="26" width="248" height="82" as="geometry" />
        </mxCell>
        <mxCell id="-9Wgxi1lex53H1lpSd3E-71" value="" style="line;strokeWidth=1;fillColor=none;align=left;verticalAlign=middle;spacingTop=-1;spacingLeft=3;spacingRight=3;rotatable=0;labelPosition=right;points=[];portConstraint=eastwest;strokeColor=inherit;rounded=0;" parent="-9Wgxi1lex53H1lpSd3E-69" vertex="1">
          <mxGeometry y="108" width="248" height="8" as="geometry" />
        </mxCell>
        <mxCell id="-9Wgxi1lex53H1lpSd3E-72" value="&lt;i&gt;&lt;font style=&quot;font-size: 8px;&quot;&gt;# assignInput(): void&lt;/font&gt;&lt;/i&gt;&lt;div&gt;&lt;i&gt;&lt;font style=&quot;font-size: 8px;&quot;&gt;# initialize(): void&lt;/font&gt;&lt;/i&gt;&lt;/div&gt;&lt;div&gt;&lt;i&gt;&lt;font style=&quot;font-size: 8px;&quot;&gt;&lt;br&gt;&lt;/font&gt;&lt;/i&gt;&lt;/div&gt;" style="text;strokeColor=none;fillColor=none;align=left;verticalAlign=top;spacingLeft=4;spacingRight=4;overflow=hidden;rotatable=0;points=[[0,0.5],[1,0.5]];portConstraint=eastwest;whiteSpace=wrap;html=1;rounded=0;" parent="-9Wgxi1lex53H1lpSd3E-69" vertex="1">
          <mxGeometry y="116" width="248" height="41" as="geometry" />
        </mxCell>
        <mxCell id="vhcxvKv5DyeP2Y2cLlsE-5" value="Controller" style="text;html=1;align=center;verticalAlign=middle;whiteSpace=wrap;rounded=0;fontSize=24;" vertex="1" parent="1">
          <mxGeometry x="643" y="30" width="60" height="30" as="geometry" />
        </mxCell>
        <mxCell id="vhcxvKv5DyeP2Y2cLlsE-7" value="View" style="text;html=1;align=center;verticalAlign=middle;whiteSpace=wrap;rounded=0;fontSize=24;" vertex="1" parent="1">
          <mxGeometry x="149" y="57" width="60" height="30" as="geometry" />
        </mxCell>
        <mxCell id="vhcxvKv5DyeP2Y2cLlsE-9" value="Model" style="text;html=1;align=center;verticalAlign=middle;whiteSpace=wrap;rounded=0;fontSize=24;" vertex="1" parent="1">
          <mxGeometry x="423" y="675" width="60" height="30" as="geometry" />
        </mxCell>
      </root>
    </mxGraphModel>
  </diagram>
</mxfile>
